<mxfile host="app.diagrams.net" modified="2023-10-13T10:59:01.775Z" agent="Mozilla/5.0 (Windows NT 10.0; Win64; x64) AppleWebKit/537.36 (KHTML, like Gecko) Chrome/117.0.0.0 Safari/537.36" etag="CcK0zuPANWsEWwLhmVXr" version="21.7.2" type="github">
  <diagram id="R2lEEEUBdFMjLlhIrx00" name="Page-1">
    <mxGraphModel dx="1195" dy="668" grid="0" gridSize="10" guides="1" tooltips="1" connect="1" arrows="1" fold="1" page="1" pageScale="1" pageWidth="850" pageHeight="1100" math="0" shadow="0" extFonts="Permanent Marker^https://fonts.googleapis.com/css?family=Permanent+Marker">
      <root>
        <mxCell id="0" />
        <mxCell id="1" parent="0" />
        <mxCell id="o8G2fhGUsHrwVTccI_8I-12" value="&lt;font style=&quot;font-size: 16px;&quot;&gt;LevelData : SO&lt;/font&gt;" style="swimlane;fontStyle=0;childLayout=stackLayout;horizontal=1;startSize=26;fillColor=none;horizontalStack=0;resizeParent=1;resizeParentMax=0;resizeLast=0;collapsible=1;marginBottom=0;whiteSpace=wrap;html=1;sketch=1;hachureGap=4;jiggle=2;curveFitting=1;fontFamily=Architects Daughter;fontSource=https%3A%2F%2Ffonts.googleapis.com%2Fcss%3Ffamily%3DArchitects%2BDaughter;fontSize=16;labelBackgroundColor=none;strokeColor=#E07A5F;fontColor=#393C56;" parent="1" vertex="1">
          <mxGeometry x="50" y="70" width="230" height="78" as="geometry" />
        </mxCell>
        <mxCell id="o8G2fhGUsHrwVTccI_8I-13" value="+MaxBuildingLevel : byte (nullable)" style="text;strokeColor=none;fillColor=none;align=left;verticalAlign=top;spacingLeft=4;spacingRight=4;overflow=hidden;rotatable=0;points=[[0,0.5],[1,0.5]];portConstraint=eastwest;whiteSpace=wrap;html=1;fontSize=10;fontFamily=Architects Daughter;labelBackgroundColor=none;fontColor=#393C56;" parent="o8G2fhGUsHrwVTccI_8I-12" vertex="1">
          <mxGeometry y="26" width="230" height="26" as="geometry" />
        </mxCell>
        <mxCell id="o8G2fhGUsHrwVTccI_8I-14" value="+Waves : List&amp;lt;WaveData&amp;gt;" style="text;strokeColor=none;fillColor=none;align=left;verticalAlign=top;spacingLeft=4;spacingRight=4;overflow=hidden;rotatable=0;points=[[0,0.5],[1,0.5]];portConstraint=eastwest;whiteSpace=wrap;html=1;fontSize=10;fontFamily=Architects Daughter;labelBackgroundColor=none;fontColor=#393C56;" parent="o8G2fhGUsHrwVTccI_8I-12" vertex="1">
          <mxGeometry y="52" width="230" height="26" as="geometry" />
        </mxCell>
        <mxCell id="o8G2fhGUsHrwVTccI_8I-16" style="edgeStyle=orthogonalEdgeStyle;rounded=0;sketch=1;hachureGap=4;jiggle=2;curveFitting=1;orthogonalLoop=1;jettySize=auto;html=1;entryX=0.01;entryY=0.187;entryDx=0;entryDy=0;fontFamily=Architects Daughter;fontSource=https%3A%2F%2Ffonts.googleapis.com%2Fcss%3Ffamily%3DArchitects%2BDaughter;fontSize=16;entryPerimeter=0;labelBackgroundColor=none;strokeColor=#E07A5F;fontColor=default;" parent="1" source="o8G2fhGUsHrwVTccI_8I-14" target="o8G2fhGUsHrwVTccI_8I-22" edge="1">
          <mxGeometry relative="1" as="geometry">
            <mxPoint x="479.9999999999998" y="105" as="targetPoint" />
          </mxGeometry>
        </mxCell>
        <mxCell id="o8G2fhGUsHrwVTccI_8I-22" value="WaveData" style="swimlane;fontStyle=0;childLayout=stackLayout;horizontal=1;startSize=26;fillColor=none;horizontalStack=0;resizeParent=1;resizeParentMax=0;resizeLast=0;collapsible=1;marginBottom=0;whiteSpace=wrap;html=1;sketch=1;hachureGap=4;jiggle=2;curveFitting=1;fontFamily=Architects Daughter;fontSource=https%3A%2F%2Ffonts.googleapis.com%2Fcss%3Ffamily%3DArchitects%2BDaughter;fontSize=16;labelBackgroundColor=none;strokeColor=#E07A5F;fontColor=#393C56;" parent="1" vertex="1">
          <mxGeometry x="340" y="180" width="230" height="78" as="geometry" />
        </mxCell>
        <mxCell id="o8G2fhGUsHrwVTccI_8I-23" value="+StartCoolDownFromLastWave : short" style="text;strokeColor=none;fillColor=none;align=left;verticalAlign=top;spacingLeft=4;spacingRight=4;overflow=hidden;rotatable=0;points=[[0,0.5],[1,0.5]];portConstraint=eastwest;whiteSpace=wrap;html=1;fontSize=10;fontFamily=Architects Daughter;labelBackgroundColor=none;fontColor=#393C56;" parent="o8G2fhGUsHrwVTccI_8I-22" vertex="1">
          <mxGeometry y="26" width="230" height="26" as="geometry" />
        </mxCell>
        <mxCell id="o8G2fhGUsHrwVTccI_8I-24" value="+Enemies : List&amp;lt;EnemyWaveData&amp;gt;" style="text;strokeColor=none;fillColor=none;align=left;verticalAlign=top;spacingLeft=4;spacingRight=4;overflow=hidden;rotatable=0;points=[[0,0.5],[1,0.5]];portConstraint=eastwest;whiteSpace=wrap;html=1;fontSize=10;fontFamily=Architects Daughter;labelBackgroundColor=none;fontColor=#393C56;" parent="o8G2fhGUsHrwVTccI_8I-22" vertex="1">
          <mxGeometry y="52" width="230" height="26" as="geometry" />
        </mxCell>
        <mxCell id="o8G2fhGUsHrwVTccI_8I-27" value="EnemyData : SO" style="swimlane;fontStyle=0;childLayout=stackLayout;horizontal=1;startSize=26;fillColor=none;horizontalStack=0;resizeParent=1;resizeParentMax=0;resizeLast=0;collapsible=1;marginBottom=0;whiteSpace=wrap;html=1;sketch=1;hachureGap=4;jiggle=2;curveFitting=1;fontFamily=Architects Daughter;fontSource=https%3A%2F%2Ffonts.googleapis.com%2Fcss%3Ffamily%3DArchitects%2BDaughter;fontSize=16;labelBackgroundColor=none;strokeColor=#E07A5F;fontColor=#393C56;" parent="1" vertex="1">
          <mxGeometry x="47" y="458" width="230" height="104" as="geometry" />
        </mxCell>
        <mxCell id="o8G2fhGUsHrwVTccI_8I-28" value="+Speed : float" style="text;strokeColor=none;fillColor=none;align=left;verticalAlign=top;spacingLeft=4;spacingRight=4;overflow=hidden;rotatable=0;points=[[0,0.5],[1,0.5]];portConstraint=eastwest;whiteSpace=wrap;html=1;fontSize=10;fontFamily=Architects Daughter;labelBackgroundColor=none;fontColor=#393C56;" parent="o8G2fhGUsHrwVTccI_8I-27" vertex="1">
          <mxGeometry y="26" width="230" height="26" as="geometry" />
        </mxCell>
        <mxCell id="o8G2fhGUsHrwVTccI_8I-29" value="+Health : short" style="text;strokeColor=none;fillColor=none;align=left;verticalAlign=top;spacingLeft=4;spacingRight=4;overflow=hidden;rotatable=0;points=[[0,0.5],[1,0.5]];portConstraint=eastwest;whiteSpace=wrap;html=1;fontSize=10;fontFamily=Architects Daughter;labelBackgroundColor=none;fontColor=#393C56;" parent="o8G2fhGUsHrwVTccI_8I-27" vertex="1">
          <mxGeometry y="52" width="230" height="26" as="geometry" />
        </mxCell>
        <mxCell id="U2Sg24MLAsKOgwwXVquy-18" value="+Armor : float" style="text;strokeColor=none;fillColor=none;align=left;verticalAlign=top;spacingLeft=4;spacingRight=4;overflow=hidden;rotatable=0;points=[[0,0.5],[1,0.5]];portConstraint=eastwest;whiteSpace=wrap;html=1;fontSize=10;fontFamily=Architects Daughter;labelBackgroundColor=none;fontColor=#393C56;" vertex="1" parent="o8G2fhGUsHrwVTccI_8I-27">
          <mxGeometry y="78" width="230" height="26" as="geometry" />
        </mxCell>
        <mxCell id="o8G2fhGUsHrwVTccI_8I-30" style="edgeStyle=orthogonalEdgeStyle;rounded=0;sketch=1;hachureGap=4;jiggle=2;curveFitting=1;orthogonalLoop=1;jettySize=auto;html=1;exitX=1;exitY=0.5;exitDx=0;exitDy=0;fontFamily=Architects Daughter;fontSource=https%3A%2F%2Ffonts.googleapis.com%2Fcss%3Ffamily%3DArchitects%2BDaughter;fontSize=16;entryX=0.522;entryY=-0.023;entryDx=0;entryDy=0;entryPerimeter=0;labelBackgroundColor=none;strokeColor=#E07A5F;fontColor=default;" parent="1" source="o8G2fhGUsHrwVTccI_8I-24" target="o8G2fhGUsHrwVTccI_8I-31" edge="1">
          <mxGeometry relative="1" as="geometry" />
        </mxCell>
        <mxCell id="o8G2fhGUsHrwVTccI_8I-31" value="EnemyWaveData" style="swimlane;fontStyle=0;childLayout=stackLayout;horizontal=1;startSize=26;fillColor=none;horizontalStack=0;resizeParent=1;resizeParentMax=0;resizeLast=0;collapsible=1;marginBottom=0;whiteSpace=wrap;html=1;sketch=1;hachureGap=4;jiggle=2;curveFitting=1;fontFamily=Architects Daughter;fontSource=https%3A%2F%2Ffonts.googleapis.com%2Fcss%3Ffamily%3DArchitects%2BDaughter;fontSize=16;labelBackgroundColor=none;strokeColor=#E07A5F;fontColor=#393C56;" parent="1" vertex="1">
          <mxGeometry x="340" y="310" width="230" height="78" as="geometry" />
        </mxCell>
        <mxCell id="o8G2fhGUsHrwVTccI_8I-32" value="+PreviousEnemyOffset : Vector3" style="text;strokeColor=none;fillColor=none;align=left;verticalAlign=top;spacingLeft=4;spacingRight=4;overflow=hidden;rotatable=0;points=[[0,0.5],[1,0.5]];portConstraint=eastwest;whiteSpace=wrap;html=1;fontSize=10;fontFamily=Architects Daughter;labelBackgroundColor=none;fontColor=#393C56;" parent="o8G2fhGUsHrwVTccI_8I-31" vertex="1">
          <mxGeometry y="26" width="230" height="26" as="geometry" />
        </mxCell>
        <mxCell id="o8G2fhGUsHrwVTccI_8I-33" value="+Enemy : EnemyData" style="text;strokeColor=none;fillColor=none;align=left;verticalAlign=top;spacingLeft=4;spacingRight=4;overflow=hidden;rotatable=0;points=[[0,0.5],[1,0.5]];portConstraint=eastwest;whiteSpace=wrap;html=1;fontSize=10;fontFamily=Architects Daughter;labelBackgroundColor=none;fontColor=#393C56;" parent="o8G2fhGUsHrwVTccI_8I-31" vertex="1">
          <mxGeometry y="52" width="230" height="26" as="geometry" />
        </mxCell>
        <mxCell id="o8G2fhGUsHrwVTccI_8I-49" style="edgeStyle=orthogonalEdgeStyle;rounded=0;sketch=1;hachureGap=4;jiggle=2;curveFitting=1;orthogonalLoop=1;jettySize=auto;html=1;exitX=1;exitY=0.5;exitDx=0;exitDy=0;strokeColor=#E07A5F;fontFamily=Architects Daughter;fontSource=https%3A%2F%2Ffonts.googleapis.com%2Fcss%3Ffamily%3DArchitects%2BDaughter;fontSize=16;fontColor=#393C56;fillColor=#F2CC8F;" parent="1" source="o8G2fhGUsHrwVTccI_8I-33" target="o8G2fhGUsHrwVTccI_8I-27" edge="1">
          <mxGeometry relative="1" as="geometry">
            <Array as="points">
              <mxPoint x="590" y="375" />
              <mxPoint x="590" y="421" />
              <mxPoint x="165" y="421" />
            </Array>
          </mxGeometry>
        </mxCell>
        <mxCell id="U2Sg24MLAsKOgwwXVquy-1" value="&lt;font style=&quot;font-size: 16px;&quot;&gt;BuildingData : SO&lt;/font&gt;" style="swimlane;fontStyle=0;childLayout=stackLayout;horizontal=1;startSize=26;fillColor=none;horizontalStack=0;resizeParent=1;resizeParentMax=0;resizeLast=0;collapsible=1;marginBottom=0;whiteSpace=wrap;html=1;sketch=1;hachureGap=4;jiggle=2;curveFitting=1;fontFamily=Architects Daughter;fontSource=https%3A%2F%2Ffonts.googleapis.com%2Fcss%3Ffamily%3DArchitects%2BDaughter;fontSize=16;labelBackgroundColor=none;strokeColor=#E07A5F;fontColor=#393C56;" vertex="1" parent="1">
          <mxGeometry x="47" y="625" width="230" height="234" as="geometry" />
        </mxCell>
        <mxCell id="U2Sg24MLAsKOgwwXVquy-3" value="+Name : string" style="text;strokeColor=none;fillColor=none;align=left;verticalAlign=top;spacingLeft=4;spacingRight=4;overflow=hidden;rotatable=0;points=[[0,0.5],[1,0.5]];portConstraint=eastwest;whiteSpace=wrap;html=1;fontSize=10;fontFamily=Architects Daughter;labelBackgroundColor=none;fontColor=#393C56;" vertex="1" parent="U2Sg24MLAsKOgwwXVquy-1">
          <mxGeometry y="26" width="230" height="26" as="geometry" />
        </mxCell>
        <mxCell id="U2Sg24MLAsKOgwwXVquy-4" value="+Type : BuildingType (enum)" style="text;strokeColor=none;fillColor=none;align=left;verticalAlign=top;spacingLeft=4;spacingRight=4;overflow=hidden;rotatable=0;points=[[0,0.5],[1,0.5]];portConstraint=eastwest;whiteSpace=wrap;html=1;fontSize=10;fontFamily=Architects Daughter;labelBackgroundColor=none;fontColor=#393C56;" vertex="1" parent="U2Sg24MLAsKOgwwXVquy-1">
          <mxGeometry y="52" width="230" height="26" as="geometry" />
        </mxCell>
        <mxCell id="U2Sg24MLAsKOgwwXVquy-13" value="+Level : byte" style="text;strokeColor=none;fillColor=none;align=left;verticalAlign=top;spacingLeft=4;spacingRight=4;overflow=hidden;rotatable=0;points=[[0,0.5],[1,0.5]];portConstraint=eastwest;whiteSpace=wrap;html=1;fontSize=10;fontFamily=Architects Daughter;labelBackgroundColor=none;fontColor=#393C56;" vertex="1" parent="U2Sg24MLAsKOgwwXVquy-1">
          <mxGeometry y="78" width="230" height="26" as="geometry" />
        </mxCell>
        <mxCell id="U2Sg24MLAsKOgwwXVquy-19" value="+Price : short" style="text;strokeColor=none;fillColor=none;align=left;verticalAlign=top;spacingLeft=4;spacingRight=4;overflow=hidden;rotatable=0;points=[[0,0.5],[1,0.5]];portConstraint=eastwest;whiteSpace=wrap;html=1;fontSize=10;fontFamily=Architects Daughter;labelBackgroundColor=none;fontColor=#393C56;" vertex="1" parent="U2Sg24MLAsKOgwwXVquy-1">
          <mxGeometry y="104" width="230" height="26" as="geometry" />
        </mxCell>
        <mxCell id="U2Sg24MLAsKOgwwXVquy-17" value="+Damage : short" style="text;strokeColor=none;fillColor=none;align=left;verticalAlign=top;spacingLeft=4;spacingRight=4;overflow=hidden;rotatable=0;points=[[0,0.5],[1,0.5]];portConstraint=eastwest;whiteSpace=wrap;html=1;fontSize=10;fontFamily=Architects Daughter;labelBackgroundColor=none;fontColor=#393C56;" vertex="1" parent="U2Sg24MLAsKOgwwXVquy-1">
          <mxGeometry y="130" width="230" height="26" as="geometry" />
        </mxCell>
        <mxCell id="U2Sg24MLAsKOgwwXVquy-20" value="+AttackRadius : float" style="text;strokeColor=none;fillColor=none;align=left;verticalAlign=top;spacingLeft=4;spacingRight=4;overflow=hidden;rotatable=0;points=[[0,0.5],[1,0.5]];portConstraint=eastwest;whiteSpace=wrap;html=1;fontSize=10;fontFamily=Architects Daughter;labelBackgroundColor=none;fontColor=#393C56;" vertex="1" parent="U2Sg24MLAsKOgwwXVquy-1">
          <mxGeometry y="156" width="230" height="26" as="geometry" />
        </mxCell>
        <mxCell id="U2Sg24MLAsKOgwwXVquy-21" value="+AttackCooldown&amp;nbsp;: float" style="text;strokeColor=none;fillColor=none;align=left;verticalAlign=top;spacingLeft=4;spacingRight=4;overflow=hidden;rotatable=0;points=[[0,0.5],[1,0.5]];portConstraint=eastwest;whiteSpace=wrap;html=1;fontSize=10;fontFamily=Architects Daughter;labelBackgroundColor=none;fontColor=#393C56;" vertex="1" parent="U2Sg24MLAsKOgwwXVquy-1">
          <mxGeometry y="182" width="230" height="26" as="geometry" />
        </mxCell>
        <mxCell id="U2Sg24MLAsKOgwwXVquy-22" value="+AttackSpeed : float" style="text;strokeColor=none;fillColor=none;align=left;verticalAlign=top;spacingLeft=4;spacingRight=4;overflow=hidden;rotatable=0;points=[[0,0.5],[1,0.5]];portConstraint=eastwest;whiteSpace=wrap;html=1;fontSize=10;fontFamily=Architects Daughter;labelBackgroundColor=none;fontColor=#393C56;" vertex="1" parent="U2Sg24MLAsKOgwwXVquy-1">
          <mxGeometry y="208" width="230" height="26" as="geometry" />
        </mxCell>
        <mxCell id="U2Sg24MLAsKOgwwXVquy-9" value="&lt;font style=&quot;font-size: 9px;&quot;&gt;BuildingType : enum&lt;/font&gt;" style="swimlane;fontStyle=0;childLayout=stackLayout;horizontal=1;startSize=26;fillColor=none;horizontalStack=0;resizeParent=1;resizeParentMax=0;resizeLast=0;collapsible=1;marginBottom=0;whiteSpace=wrap;html=1;sketch=1;hachureGap=4;jiggle=2;curveFitting=1;fontFamily=Architects Daughter;fontSource=https%3A%2F%2Ffonts.googleapis.com%2Fcss%3Ffamily%3DArchitects%2BDaughter;fontSize=16;labelBackgroundColor=none;strokeColor=#E07A5F;fontColor=#393C56;" vertex="1" parent="1">
          <mxGeometry x="340" y="612" width="123" height="130" as="geometry" />
        </mxCell>
        <mxCell id="U2Sg24MLAsKOgwwXVquy-10" value="Archer" style="text;strokeColor=none;fillColor=none;align=center;verticalAlign=top;spacingLeft=4;spacingRight=4;overflow=hidden;rotatable=0;points=[[0,0.5],[1,0.5]];portConstraint=eastwest;whiteSpace=wrap;html=1;fontSize=10;fontFamily=Architects Daughter;labelBackgroundColor=none;fontColor=#393C56;" vertex="1" parent="U2Sg24MLAsKOgwwXVquy-9">
          <mxGeometry y="26" width="123" height="26" as="geometry" />
        </mxCell>
        <mxCell id="U2Sg24MLAsKOgwwXVquy-14" value="Balista" style="text;strokeColor=none;fillColor=none;align=center;verticalAlign=top;spacingLeft=4;spacingRight=4;overflow=hidden;rotatable=0;points=[[0,0.5],[1,0.5]];portConstraint=eastwest;whiteSpace=wrap;html=1;fontSize=10;fontFamily=Architects Daughter;labelBackgroundColor=none;fontColor=#393C56;" vertex="1" parent="U2Sg24MLAsKOgwwXVquy-9">
          <mxGeometry y="52" width="123" height="26" as="geometry" />
        </mxCell>
        <mxCell id="U2Sg24MLAsKOgwwXVquy-15" value="Artilery" style="text;strokeColor=none;fillColor=none;align=center;verticalAlign=top;spacingLeft=4;spacingRight=4;overflow=hidden;rotatable=0;points=[[0,0.5],[1,0.5]];portConstraint=eastwest;whiteSpace=wrap;html=1;fontSize=10;fontFamily=Architects Daughter;labelBackgroundColor=none;fontColor=#393C56;" vertex="1" parent="U2Sg24MLAsKOgwwXVquy-9">
          <mxGeometry y="78" width="123" height="26" as="geometry" />
        </mxCell>
        <mxCell id="U2Sg24MLAsKOgwwXVquy-16" value="Magic" style="text;strokeColor=none;fillColor=none;align=center;verticalAlign=top;spacingLeft=4;spacingRight=4;overflow=hidden;rotatable=0;points=[[0,0.5],[1,0.5]];portConstraint=eastwest;whiteSpace=wrap;html=1;fontSize=10;fontFamily=Architects Daughter;labelBackgroundColor=none;fontColor=#393C56;" vertex="1" parent="U2Sg24MLAsKOgwwXVquy-9">
          <mxGeometry y="104" width="123" height="26" as="geometry" />
        </mxCell>
        <mxCell id="U2Sg24MLAsKOgwwXVquy-12" style="edgeStyle=orthogonalEdgeStyle;rounded=0;sketch=1;hachureGap=4;jiggle=2;curveFitting=1;orthogonalLoop=1;jettySize=auto;html=1;exitX=1;exitY=0.5;exitDx=0;exitDy=0;entryX=0.009;entryY=0.158;entryDx=0;entryDy=0;entryPerimeter=0;fontFamily=Architects Daughter;fontSource=https%3A%2F%2Ffonts.googleapis.com%2Fcss%3Ffamily%3DArchitects%2BDaughter;fontSize=16;fillColor=#f8cecc;strokeColor=#ba624b;" edge="1" parent="1" source="U2Sg24MLAsKOgwwXVquy-4" target="U2Sg24MLAsKOgwwXVquy-9">
          <mxGeometry relative="1" as="geometry">
            <Array as="points">
              <mxPoint x="277" y="693" />
              <mxPoint x="326" y="693" />
              <mxPoint x="326" y="626" />
              <mxPoint x="341" y="626" />
            </Array>
          </mxGeometry>
        </mxCell>
        <mxCell id="U2Sg24MLAsKOgwwXVquy-23" value="Classname" style="swimlane;fontStyle=1;align=center;verticalAlign=top;childLayout=stackLayout;horizontal=1;startSize=26;horizontalStack=0;resizeParent=1;resizeParentMax=0;resizeLast=0;collapsible=1;marginBottom=0;whiteSpace=wrap;html=1;sketch=1;hachureGap=4;jiggle=2;curveFitting=1;fontFamily=Architects Daughter;fontSource=https%3A%2F%2Ffonts.googleapis.com%2Fcss%3Ffamily%3DArchitects%2BDaughter;fontSize=20;" vertex="1" parent="1">
          <mxGeometry x="697" y="67" width="160" height="86" as="geometry" />
        </mxCell>
        <mxCell id="U2Sg24MLAsKOgwwXVquy-24" value="+ field: type" style="text;strokeColor=none;fillColor=none;align=left;verticalAlign=top;spacingLeft=4;spacingRight=4;overflow=hidden;rotatable=0;points=[[0,0.5],[1,0.5]];portConstraint=eastwest;whiteSpace=wrap;html=1;fontSize=20;fontFamily=Architects Daughter;" vertex="1" parent="U2Sg24MLAsKOgwwXVquy-23">
          <mxGeometry y="26" width="160" height="26" as="geometry" />
        </mxCell>
        <mxCell id="U2Sg24MLAsKOgwwXVquy-25" value="" style="line;strokeWidth=1;fillColor=none;align=left;verticalAlign=middle;spacingTop=-1;spacingLeft=3;spacingRight=3;rotatable=0;labelPosition=right;points=[];portConstraint=eastwest;strokeColor=inherit;sketch=1;hachureGap=4;jiggle=2;curveFitting=1;fontFamily=Architects Daughter;fontSource=https%3A%2F%2Ffonts.googleapis.com%2Fcss%3Ffamily%3DArchitects%2BDaughter;fontSize=20;" vertex="1" parent="U2Sg24MLAsKOgwwXVquy-23">
          <mxGeometry y="52" width="160" height="8" as="geometry" />
        </mxCell>
        <mxCell id="U2Sg24MLAsKOgwwXVquy-26" value="+ method(type): type" style="text;strokeColor=none;fillColor=none;align=left;verticalAlign=top;spacingLeft=4;spacingRight=4;overflow=hidden;rotatable=0;points=[[0,0.5],[1,0.5]];portConstraint=eastwest;whiteSpace=wrap;html=1;fontSize=20;fontFamily=Architects Daughter;" vertex="1" parent="U2Sg24MLAsKOgwwXVquy-23">
          <mxGeometry y="60" width="160" height="26" as="geometry" />
        </mxCell>
      </root>
    </mxGraphModel>
  </diagram>
</mxfile>
